<svg xmlns="http://www.w3.org/2000/svg" viewBox="0 0 165.3 164.6">
  <ellipse cx="82.7" cy="82.3" fill="#f9de81" rx="82.7" ry="82.3"/>
  <path d="M52.2 30c-1.8 1-3.9.6-5-1.3-1-1.8-.4-3.9 1.3-4.9 1.8-1 3.9-.5 5 1.3 1 1.8.4 4-1.3 5zm22.1-9.6-.3-1.8 5.8-.9.1 1.1c.7 4.3-1.6 7.5-5.5 8.1-4.2.7-7.8-2-8.6-7-.8-5.1 1.9-8.9 6-9.5 3.4-.5 6 1 7 4l-2 .3c-1-1.8-2.5-2.8-4.7-2.4-3.1.4-4.9 3.4-4.3 7.2.6 3.8 3.1 6.1 6.3 5.6 2.8-.4 4.2-2.4 4-5.3zm15.4 6.4c-4.3-.6-6.8-4.4-6.2-9.3.6-4.8 4-7.9 8.3-7.3 4.2.5 6.8 4.3 6.2 9.2-.6 4.9-4 8-8.3 7.4zM91.6 12c-3.1-.4-5.6 2-6 5.8-.5 3.8 1.2 6.7 4.3 7.1 3.1.4 5.6-2 6-5.8.5-3.7-1.2-6.7-4.3-7zM105 31c-4-1.7-5.3-6.1-3.4-10.6 2-4.5 6.2-6.4 10-4.7 4 1.7 5.4 6 3.4 10.6-1.9 4.5-6.1 6.4-10 4.7zm5.9-13.6c-2.9-1.3-5.9.3-7.4 3.8s-.6 6.8 2.2 8c3 1.4 6-.3 7.4-3.8 1.6-3.5.7-6.8-2.2-8zm13.1 5.2 4 3.3c3.7 3 4 7.5 1 11.3-3.2 3.8-7.7 4.3-11.3 1.2l-4-3.3zM119 37c2.8 2.3 6 1.8 8.4-1.1 2.5-3 2.4-6.2-.5-8.6l-2.4-2-8 9.7zm17 12.6-5.7 3-1-1.8 14.3-7.7 2.9 5.3c1.5 2.9 1 5.5-1.7 7-2.8 1.6-5.3.6-6.9-2.3zm8.9-.4-2-3.4-5.2 2.9 1.8 3.4c1 2 2.7 2.4 4.3 1.5 1.6-.9 2.1-2.4 1-4.4zM142.6 63l-6.7 1.8-.5-2 15.7-4.2 1.5 5.8c.9 3.2-.2 5.6-3.2 6.4-2.6.7-4.5-.5-5.4-2.9l-5.5 6.5-.6-2.3 5.4-6.3-.7-2.8zm1.7-.5 1 3.8c.5 2 1.9 3 3.6 2.5 1.7-.5 2.5-1.9 2-4l-1-3.7zm10.5 22.7-16.4 6V89l5-1.7.2-6.7-4.8-2v-2.1l16 6.8zm-9.4-3.9-.2 5.3 7-2.4zm-2.2 22.7-9.7 2.8.7-2.3 7.7-2.2-4.8-6.5.8-2.2 6 8.1 9.3-2.7-.8 2.3-7.3 2 4.5 6.3-.7 2.1zm-12.2 6.6 1-1.8 14.1 8-1 1.8zm.6 7c-1.8-.7-3.4 0-4.7 1.5-1.4 1.6-1.5 3.4-.1 4.6 1 .8 2 .8 3.6-.4l2.5-1.7c1.8-1.4 3.8-2 5.6-.4 2.2 1.8 2.1 4.7.2 7-2.2 2.7-4.7 3.1-7.1 2l1.3-1.7c1.5.6 3 .3 4.4-1.3 1.2-1.5 1.4-3.3.1-4.3-1-1-2.1-.7-3.6.4l-2.3 1.7c-2.1 1.5-4.1 1.8-6 .3-2.2-1.9-2-4.9 0-7.3 2-2.5 4.9-3.4 7.4-2l-1.3 1.6zM113 134.5c1.8-1 3.9-.5 5 1.3 1 1.8.4 4-1.3 5-1.8 1-4 .5-5-1.4-1-1.8-.4-3.9 1.3-4.9zM92 144l.3 1.7-5.8 1-.2-1.1c-.7-4.3 1.5-7.5 5.4-8.2 4.2-.7 8 2 8.8 7 .9 5-1.8 8.8-5.9 9.5-3.4.6-6-1-7.1-3.9l2-.3c1 1.8 2.5 2.7 4.8 2.3 3.1-.5 4.8-3.4 4.1-7.3-.6-3.8-3.2-6-6.4-5.5-2.7.5-4 2.5-3.8 5.4zm-15.5-6.2c4.2.5 6.9 4.3 6.3 9.1-.5 5-4 8-8.2 7.5-4.2-.4-6.9-4.2-6.3-9.1.5-4.9 4-8 8.2-7.5zm-1.7 14.8c3.1.3 5.5-2.1 6-5.9.4-3.8-1.4-6.7-4.5-7-3.1-.4-5.5 2-6 5.8-.4 3.8 1.4 6.7 4.5 7zm-13.7-18.8c4 1.6 5.4 6 3.6 10.6-2 4.5-6 6.5-10 4.8-4-1.6-5.5-6-3.6-10.5 2-4.5 6-6.6 10-5zm-5.7 13.7c2.9 1.2 5.9-.4 7.3-4 1.5-3.5.6-6.8-2.3-8-2.9-1.2-5.9.5-7.4 4-1.4 3.5-.5 6.8 2.4 8zm-13.2-5-4-3.2c-3.8-3-4.2-7.5-1.1-11.3 3-3.9 7.5-4.4 11.2-1.4l4 3.2zm5-14.4c-2.9-2.3-6.1-1.8-8.5 1.2-2.4 3-2.2 6.2.6 8.5l2.4 2 7.9-9.8zm-17.4-12.4 5.6-3.2 1 1.8-14 8-3-5.3c-1.7-2.8-1.2-5.4 1.6-7 2.7-1.6 5.2-.6 6.8 2.2zm-8.8.5 2 3.4 5.2-3-2-3.4c-1-2-2.6-2.3-4.2-1.4-1.6.9-2.1 2.5-1 4.4zm2-13.8 6.7-1.9.5 2-15.6 4.5-1.6-6c-1-3.1.1-5.5 3-6.4 2.7-.7 4.6.4 5.6 2.8L27 91l.6 2.3-5.3 6.3zm-1.7.5-1-3.8c-.6-2-2-2.9-3.7-2.4-1.7.5-2.4 2-1.9 4l1 3.7zM10.5 80.3l16.3-6.1v2.1l-5 1.8v6.7l4.8 2v2l-16.1-6.5zm9.5 3.8v-5.3l-7 2.6zm1.8-22.7 9.7-3-.7 2.3-7.7 2.4 4.9 6.4-.7 2.2-6.1-8-9.3 2.8.7-2.2L20 62l-4.6-6.2.7-2.2zM34 54.6l-1 1.8-14.3-7.7 1-1.9zm-.8-7c1.8.7 3.4 0 4.7-1.5 1.3-1.7 1.4-3.5 0-4.6-1-.8-2-.8-3.6.4l-2.4 1.8c-1.9 1.4-3.8 2-5.7.4-2.2-1.7-2.2-4.7-.3-7 2.1-2.7 4.7-3.1 7.1-2l-1.3 1.6c-1.5-.5-3-.2-4.4 1.5-1.2 1.5-1.3 3.2 0 4.3 1 .8 2.2.5 3.6-.5l2.3-1.7c2-1.6 4-1.9 5.9-.5 2.3 1.9 2.2 4.9.1 7.4-2 2.5-4.7 3.4-7.3 2z"/>
</svg>
